<?xml version="1.0" encoding="UTF-8"?>
<svg width="20px" height="19px" viewBox="0 0 20 19" version="1.1" xmlns="http://www.w3.org/2000/svg" xmlns:xlink="http://www.w3.org/1999/xlink">
    <!-- Generator: Sketch 61.2 (89653) - https://sketch.com -->
    <title>menu</title>
    <desc>Created with Sketch.</desc>
    <defs>
        <path d="M0,0 L0,251.002354 C0,270.33102 15.6655036,286 35.0053814,286 L375,286 L375,0 L0,0 Z" id="path-1"></path>
        <linearGradient x1="112.34245%" y1="56.827022%" x2="2.29664763%" y2="49.9075605%" id="linearGradient-3">
            <stop stop-color="#3B37DE" offset="0%"></stop>
            <stop stop-color="#6E6CD1" stop-opacity="0" offset="100%"></stop>
        </linearGradient>
    </defs>
    <g id="Page-1" stroke="none" stroke-width="1" fill="none" fill-rule="evenodd">
        <g id="home" transform="translate(-20.000000, -36.000000)">
            <rect id="bg" fill="#FFFFFF" x="0" y="0" width="375" height="812"></rect>
            <g id="header" transform="translate(-252.000000, -208.000000)">
                <g id="bg">
                    <g id="Nav-bar">
                        <g id="Rectangle" transform="translate(252.000000, 208.000000)">
                            <mask id="mask-2" fill="white">
                                <use xlink:href="#path-1"></use>
                            </mask>
                            <use id="Mask" fill="#3B37DE" xlink:href="#path-1"></use>
                        </g>
                        <polygon id="Rectangle-Copy" fill="url(#linearGradient-3)" opacity="0.7" transform="translate(270.324504, 266.276105) scale(1, -1) rotate(44.000000) translate(-270.324504, -266.276105) " points="-1.43441785 158.543299 541.785824 159.296303 542.083427 374.008911 -1.13681531 373.255908"></polygon>
                    </g>
                </g>
                <g transform="translate(272.000000, 235.000000)" fill="#FFFFFF" id="menu">
                    <g transform="translate(0.000000, 9.000000)">
                        <circle id="Oval" cx="3.5" cy="3.5" r="3.5"></circle>
                        <circle id="Oval-Copy-2" cx="3.5" cy="15.5" r="3.5"></circle>
                        <circle id="Oval-Copy" cx="16.5" cy="3.5" r="3.5"></circle>
                        <circle id="Oval-Copy-3" cx="16.5" cy="15.5" r="3.5"></circle>
                    </g>
                </g>
            </g>
        </g>
    </g>
</svg>