<?xml version="1.0" encoding="UTF-8"?>
<svg width="94px" height="64px" viewBox="0 0 94 64" version="1.1" xmlns="http://www.w3.org/2000/svg" xmlns:xlink="http://www.w3.org/1999/xlink">
    <!-- Generator: Sketch 61.2 (89653) - https://sketch.com -->
    <title>Artboard</title>
    <desc>Created with Sketch.</desc>
    <g id="Page-1" stroke="none" stroke-width="1" fill="none" fill-rule="evenodd">
        <g id="Artboard" transform="translate(-3.000000, 0.000000)">
            <g id="Group-3" transform="translate(4.000000, 1.000000)">
                <g id="Group" transform="translate(5.000000, 0.000000)">
                    <path d="M0,13.3411292 C17.4504732,4.44704308 30.6570781,0 39.6198148,0 C48.5825515,0 62.3759466,4.44704308 81,13.3411292 L72.2432432,55.3900314 C58.392146,59.7966771 47.8110649,62 40.5,62 C33.1889351,62 21.8588296,59.4166667 6.50968344,54.25 L0,13.3411292 Z" id="Path" fill="#FFFFFF"></path>
                    <path d="M2.80041741,14.9378895 C19.3511008,6.82838716 31.8050158,2.77363599 40.1621622,2.77363599 C48.5193086,2.77363599 61.4021914,6.82838716 78.8108108,14.9378895 L70.7509523,52.4184256 C57.6044676,56.6357141 47.6226882,58.7443584 40.8056141,58.7443584 C33.9885401,58.7443584 23.3030699,56.2774889 8.7492037,51.34375 L2.80041741,14.9378895 Z" id="Path" fill="#DBEFFC"></path>
                    <g id="Group-2" transform="translate(7.662162, 22.448276)" fill="#B3E0FF">
                        <path d="M0.634999372,0 C16.1727961,1.69807325 26.1028932,2.54710987 30.4252908,2.54710987 C36.9088871,2.54710987 63.6913139,0 63.6913139,0 C63.6913139,0 65.69329,2.04145995 63.6913139,2.54710987 C61.6893378,3.05275979 36.7020352,6.9168357 30.4252908,6.9168357 C24.1485464,6.9168357 1.90499812,2.30485315 0.634999372,1.7071782 C-0.211666457,1.30872823 -0.211666457,0.739668826 0.634999372,0 Z" id="Path-2"></path>
                        <path d="M0.634999372,8.30020284 C16.1727961,9.99827609 26.1028932,10.8473127 30.4252908,10.8473127 C36.9088871,10.8473127 63.6913139,8.30020284 63.6913139,8.30020284 C63.6913139,8.30020284 65.69329,10.3416628 63.6913139,10.8473127 C61.6893378,11.3529626 36.7020352,15.2170385 30.4252908,15.2170385 C24.1485464,15.2170385 1.90499812,10.605056 0.634999372,10.007381 C-0.211666457,9.60893107 -0.211666457,9.03987167 0.634999372,8.30020284 Z" id="Path-2"></path>
                        <path d="M0.634999372,16.6004057 C16.1727961,18.2984789 26.1028932,19.1475155 30.4252908,19.1475155 C36.9088871,19.1475155 63.6913139,16.6004057 63.6913139,16.6004057 C63.6913139,16.6004057 65.69329,18.6418656 63.6913139,19.1475155 C61.6893378,19.6531655 36.7020352,23.5172414 30.4252908,23.5172414 C24.1485464,23.5172414 1.90499812,18.9052588 0.634999372,18.3075839 C-0.211666457,17.9091339 -0.211666457,17.3400745 0.634999372,16.6004057 Z" id="Path-2"></path>
                    </g>
                </g>
                <path d="M6,15 C3.38931324,13.2701198 1.38931324,11.6034531 0,10" id="Path-7" stroke="#FFFFFF" stroke-linecap="round" stroke-linejoin="round"></path>
                <path d="M85,15 C85,15 92,11.8862156 92,9" id="Path-9" stroke="#FFFFFF" stroke-linecap="round" stroke-linejoin="round"></path>
                <path d="M13,54 C10.7532668,53.3638546 9.41993346,51.6971879 9,49" id="Path-3" stroke="#FFFFFF" stroke-linecap="round" stroke-linejoin="round"></path>
                <path d="M76,55 C78.1092769,54.7573146 79.4426103,53.7573146 80,52" id="Path-4" stroke="#FFFFFF" stroke-linecap="round" stroke-linejoin="round"></path>
            </g>
        </g>
    </g>
</svg>