<svg width="32" height="30" viewBox="0 0 32 30" fill="none" xmlns="http://www.w3.org/2000/svg">
<path d="M23.7507 5.20401H24.8893C26.9027 5.27601 28.5813 5.97468 29.92 7.30268C31.2587 8.62934 31.952 10.3013 32 12.316V22.1293C31.952 24.1427 31.2587 25.8213 29.92 27.16C28.5813 28.4987 26.904 29.192 24.8893 29.24H7.11067C5.09733 29.192 3.41867 28.4987 2.08 27.16C0.741333 25.8213 0.048 24.144 0 22.1293V12.316C0.048 10.3013 0.741333 8.62934 2.08 7.30268C3.41867 5.97468 5.096 5.27601 7.11067 5.20401H8.14267L6.57733 3.71068C6.41635 3.55395 6.28917 3.36591 6.20364 3.15815C6.1181 2.95039 6.07603 2.72732 6.08 2.50268C6.08 2.02801 6.24533 1.62534 6.57733 1.29334L6.61333 1.25734C6.96933 0.925343 7.37733 0.76001 7.84 0.76001C8.30267 0.76001 8.71067 0.925343 9.06667 1.25734L12.8707 4.92001C12.9653 5.01468 13.0493 5.10934 13.12 5.20401H18.8093C18.8648 5.09855 18.9368 5.00266 19.0227 4.92001L22.8267 1.25734C23.1827 0.925343 23.5907 0.76001 24.0533 0.76001C24.516 0.76001 24.936 0.961343 25.292 1.29334C25.648 1.62534 25.8133 2.02801 25.8133 2.50268C25.8133 2.97601 25.648 3.37868 25.316 3.71068L23.7507 5.20401ZM7.11067 8.65334C6.116 8.67734 5.28 9.02134 4.604 9.68401C3.92933 10.348 3.57867 11.1907 3.556 12.2093V22.236C3.57867 23.2547 3.92933 24.096 4.604 24.76C5.28 25.424 6.116 25.768 7.11067 25.7907H24.8893C25.884 25.768 26.72 25.424 27.396 24.76C28.0707 24.096 28.4213 23.2547 28.444 22.236V12.2093C28.4213 11.1893 28.0707 10.348 27.396 9.68401C26.72 9.02134 25.884 8.67734 24.8893 8.65334H7.11067ZM10.6667 13.8093C11.164 13.8093 11.5787 13.9747 11.9107 14.3067C12.244 14.6387 12.4213 15.0653 12.444 15.5867V17.1507C12.4213 17.672 12.244 18.0987 11.9107 18.4307C11.5787 18.764 11.164 18.9293 10.6667 18.9293C10.1693 18.9293 9.75467 18.7627 9.42267 18.4307C9.08933 18.0987 8.912 17.672 8.88933 17.1507V15.5867C8.88933 15.0893 9.06133 14.668 9.404 14.324C9.748 13.9813 10.1693 13.8093 10.6667 13.8093V13.8093ZM21.3333 13.8093C21.8307 13.8093 22.2453 13.9747 22.5773 14.3067C22.9107 14.6387 23.088 15.0653 23.1107 15.5867V17.1507C23.088 17.672 22.9107 18.0987 22.5773 18.4307C22.2453 18.764 21.8307 18.9293 21.3333 18.9293C20.836 18.9293 20.4213 18.7627 20.0893 18.4307C19.756 18.0987 19.5787 17.672 19.556 17.1507V15.5867C19.5787 15.0653 19.756 14.6387 20.0893 14.3067C20.4213 13.9747 20.836 13.8093 21.3333 13.8093V13.8093Z" fill="#FCB671"/>
</svg>
