<svg width="138" height="41" viewBox="0 0 138 41" fill="none" xmlns="http://www.w3.org/2000/svg">
<path fill-rule="evenodd" clip-rule="evenodd" d="M34.572 17.764H40.485V22.88L34.572 22.879C34.433 23.6539 34.2307 24.4162 33.967 25.158L39.083 28.111L36.525 32.542L31.403 29.586C30.8933 30.1852 30.3362 30.7423 29.737 31.252L32.695 36.374L28.262 38.932L25.309 33.813C24.5678 34.0795 23.8054 34.2829 23.03 34.421V40.334H17.914V34.421C17.1393 34.2825 16.3776 34.0792 15.637 33.813L12.682 38.932L8.251 36.374L11.209 31.252C10.6093 30.7428 10.0522 30.1857 9.543 29.586L4.422 32.542L1.863 28.111L6.98 25.158C6.71459 24.4166 6.51187 23.6543 6.374 22.879H0.460999V17.763H6.374C6.51188 16.9884 6.71459 16.2267 6.98 15.486L1.863 12.531L4.422 8.1L9.54 11.059C10.0481 10.4584 10.6054 9.90112 11.206 9.393L8.248 4.272L12.679 1.713L15.634 6.83C16.3748 6.56495 17.1364 6.36225 17.911 6.224V0.310997H23.027V6.224C23.8023 6.36187 24.5646 6.56458 25.306 6.83L28.259 1.713L32.692 4.272L29.734 9.393C30.3341 9.90164 30.8914 10.4589 31.4 11.059L36.525 8.1L39.083 12.532L33.967 15.487C34.2307 16.2281 34.433 16.9897 34.572 17.764ZM15.284 20.318C15.2818 23.1858 17.6042 25.5127 20.472 25.516C21.8506 25.5176 23.1732 24.9711 24.1486 23.9968C25.124 23.0226 25.672 21.7006 25.672 20.322C25.672 17.4542 23.3478 15.1291 20.48 15.128C17.6122 15.1269 15.2862 17.4502 15.284 20.318Z" fill="#261C35"/>
<path fill-rule="evenodd" clip-rule="evenodd" d="M54.013 26.608V19.018H55.48L58.3 26.608H61.214L58.244 18.958C58.8601 18.886 59.421 18.5683 59.7994 18.0769C60.1779 17.5855 60.3418 16.962 60.254 16.348V10.468C60.254 8.708 59.324 7.828 57.464 7.828H51.313V26.608H54.013ZM54.013 16.858V10.018H56.653C56.9048 9.98944 57.1588 10.0476 57.373 10.183C57.5213 10.3862 57.5857 10.6386 57.553 10.888V15.988C57.5857 16.2374 57.5213 16.4898 57.373 16.693C57.1588 16.8284 56.9048 16.8866 56.653 16.858H54.013Z" fill="#261C35"/>
<path fill-rule="evenodd" clip-rule="evenodd" d="M68.772 11.968H65.562C63.7207 11.968 62.801 12.858 62.803 14.638V23.968C62.8037 25.728 63.7233 26.608 65.562 26.608H68.772C70.632 26.608 71.562 25.728 71.562 23.968V14.638C71.5627 12.858 70.6327 11.968 68.772 11.968ZM68.893 15V23.578V23.58C68.9707 23.8348 68.9016 24.1118 68.7132 24.3002C68.5248 24.4886 68.2478 24.5577 67.993 24.48H66.343C66.0936 24.513 65.8411 24.4485 65.638 24.3C65.5021 24.086 65.4439 23.8318 65.473 23.58V15C65.4439 14.7482 65.5021 14.494 65.638 14.28C65.8411 14.1315 66.0936 14.067 66.343 14.1H67.993C68.2478 14.0223 68.5248 14.0914 68.7132 14.2798C68.9016 14.4682 68.9707 14.7452 68.893 15Z" fill="#261C35"/>
<path fill-rule="evenodd" clip-rule="evenodd" d="M79.662 11.938H78.612C77.7924 11.8348 77.0139 12.3245 76.752 13.108V6.538H74.052V26.608H76.752V25.438C77.0139 26.2215 77.7924 26.7112 78.612 26.608H79.662C81.4827 26.608 82.393 25.728 82.393 23.968V14.608C82.3923 12.828 81.482 11.938 79.662 11.938ZM79.692 15V23.548C79.7254 23.7979 79.6613 24.0511 79.513 24.255C79.2984 24.3904 79.0441 24.4486 78.792 24.42H77.742C77.4652 24.4483 77.1889 24.3615 76.978 24.18C76.8045 23.9475 76.724 23.6587 76.752 23.37V15.18C76.724 14.8913 76.8045 14.6025 76.978 14.37C77.1889 14.1885 77.4652 14.1017 77.742 14.13H78.792C79.0463 14.0996 79.3028 14.1637 79.513 14.31C79.6566 14.5096 79.7205 14.7557 79.692 15Z" fill="#261C35"/>
<path fill-rule="evenodd" clip-rule="evenodd" d="M90.672 11.968H87.462C85.6207 11.968 84.7007 12.858 84.702 14.638V23.968C84.702 25.728 85.622 26.608 87.462 26.608H90.672C92.532 26.608 93.462 25.728 93.462 23.968V14.638C93.462 12.858 92.532 11.968 90.672 11.968ZM90.792 15V23.578V23.58C90.8697 23.8348 90.8006 24.1118 90.6122 24.3002C90.4238 24.4886 90.1468 24.5577 89.892 24.48H88.241C87.9916 24.5129 87.7391 24.4484 87.536 24.3C87.4006 24.0858 87.3424 23.8318 87.371 23.58V15C87.3424 14.7482 87.4006 14.4942 87.536 14.28C87.7391 14.1316 87.9916 14.0671 88.241 14.1H89.892C90.1468 14.0223 90.4238 14.0914 90.6122 14.2798C90.8006 14.4682 90.8697 14.7452 90.792 15Z" fill="#261C35"/>
<path d="M100.9 14.158H98.891V23.428C98.8071 23.6753 98.8709 23.9488 99.0556 24.1334C99.2402 24.3181 99.5137 24.3819 99.761 24.298H100.9V26.608H98.98C97.1013 26.608 96.1617 25.728 96.161 23.968V14.158H94.781V11.968H96.161V9.478H98.891V11.968H100.9V14.158Z" fill="#261C35"/>
<path fill-rule="evenodd" clip-rule="evenodd" d="M108.192 11.968H105.252C103.392 11.968 102.461 12.858 102.459 14.638V23.968C102.46 25.728 103.39 26.608 105.249 26.608H108.129C109.989 26.608 110.919 25.728 110.919 23.968V22.378H108.279V23.578C108.357 23.8328 108.288 24.1098 108.099 24.2982C107.911 24.4866 107.634 24.5557 107.379 24.478H105.999C105.745 24.5082 105.489 24.4442 105.279 24.298C105.135 24.0984 105.072 23.8523 105.1 23.608V20.128H111.012V14.638C111.012 12.858 110.072 11.968 108.192 11.968ZM108.342 18.148H105.103L105.101 14.968C105.073 14.7237 105.136 14.4776 105.28 14.278C105.49 14.1318 105.746 14.0678 106 14.098H107.472C107.721 14.0653 107.974 14.1298 108.177 14.278C108.31 14.4819 108.369 14.7258 108.342 14.968V18.148Z" fill="#261C35"/>
<path d="M121.6 16.588H118.93V15.028C118.963 14.7786 118.898 14.5262 118.75 14.323C118.536 14.1876 118.282 14.1294 118.03 14.158H116.74C116.488 14.1294 116.234 14.1876 116.02 14.323C115.872 14.5262 115.807 14.7786 115.84 15.028V23.548C115.807 23.7974 115.872 24.0498 116.02 24.253C116.234 24.3884 116.488 24.4466 116.74 24.418H118.03C118.282 24.4466 118.536 24.3884 118.75 24.253C118.898 24.0498 118.963 23.7974 118.93 23.548V21.988H121.6V23.968C121.6 25.728 120.66 26.608 118.78 26.608H115.93C114.07 26.608 113.14 25.728 113.14 23.968V14.638C113.14 12.858 114.07 11.968 115.93 11.968H118.78C120.66 11.968 121.6 12.858 121.6 14.638V16.588Z" fill="#261C35"/>
<path d="M128.411 11.968H129.461C131.281 11.968 132.191 12.858 132.191 14.638V26.608H129.491V15.028C129.524 14.7787 129.46 14.5264 129.312 14.323C129.097 14.1878 128.843 14.1296 128.591 14.158H127.541C127.264 14.1299 126.987 14.2166 126.776 14.398C126.603 14.6308 126.523 14.9195 126.551 15.208V26.608H123.851V6.538H126.551V13.138C126.813 12.3545 127.591 11.8648 128.411 11.968Z" fill="#261C35"/>
<path d="M134.441 26.608V22.918H137.472V26.608H134.441Z" fill="#261C35"/>
</svg>
