<svg width="33" height="27" viewBox="0 0 33 27" fill="none" xmlns="http://www.w3.org/2000/svg">
<path d="M23.0621 8.46224C23.2794 8.46224 23.4967 8.46971 23.7103 8.48091C22.8116 3.67469 17.8795 0 11.927 0C5.341 0 0 4.50373 0 10.0606C0 13.0892 1.60598 15.8191 4.12178 17.6639C4.22554 17.7382 4.31016 17.8367 4.3685 17.951C4.42684 18.0654 4.45718 18.1924 4.45697 18.3212C4.45697 18.4108 4.43855 18.4929 4.41645 18.5788C4.21386 19.3369 3.8934 20.5506 3.87867 20.6066C3.85289 20.7037 3.81605 20.8008 3.81605 20.9017C3.81605 21.122 3.99286 21.305 4.21386 21.305C4.29858 21.305 4.36857 21.2714 4.44224 21.2303L7.0538 19.7029C7.24902 19.5871 7.45898 19.5162 7.68735 19.5162C7.80522 19.5162 7.92309 19.5348 8.03728 19.5685C9.2565 19.9232 10.5715 20.1212 11.9307 20.1212C12.1517 20.1212 12.369 20.1174 12.5863 20.1062C12.3248 19.322 12.1848 18.4967 12.1848 17.6415C12.1848 12.5701 17.0544 8.46224 23.0621 8.46224V8.46224ZM15.9051 5.23195C16.7818 5.23195 17.4964 5.95269 17.4964 6.84149C17.4964 7.73029 16.7855 8.45103 15.9051 8.45103C15.0285 8.45103 14.3139 7.73029 14.3139 6.84149C14.3139 5.95269 15.0285 5.23195 15.9051 5.23195ZM7.95256 8.45103C7.0759 8.45103 6.36131 7.73029 6.36131 6.84149C6.36131 5.95269 7.07222 5.23195 7.95256 5.23195C8.8329 5.23195 9.54381 5.95269 9.54381 6.84149C9.54381 7.73029 8.82922 8.45103 7.95256 8.45103ZM29.567 23.9714C31.6629 22.4328 33 20.1622 33 17.634C33 13.0033 28.5504 9.2502 23.0584 9.2502C17.57 9.2502 13.1168 13.0033 13.1168 17.634C13.1168 22.2647 17.5664 26.0178 23.0584 26.0178C24.1929 26.0178 25.2905 25.8535 26.3035 25.5585C26.3993 25.5286 26.495 25.5137 26.5945 25.5137C26.786 25.5137 26.9591 25.5734 27.1212 25.6668L29.2981 26.9365C29.3608 26.9738 29.4197 27 29.4897 27C29.5333 27.0003 29.5766 26.9919 29.6171 26.9753C29.6576 26.9586 29.6944 26.934 29.7254 26.9029C29.7561 26.8714 29.7804 26.8341 29.7968 26.7931C29.8133 26.7521 29.8215 26.7082 29.8212 26.6639C29.8212 26.5817 29.788 26.4996 29.7696 26.4174C29.7586 26.3726 29.4897 25.3606 29.3202 24.7257C29.3018 24.6548 29.2871 24.5838 29.2871 24.5129C29.2908 24.2925 29.4013 24.0946 29.567 23.9714V23.9714ZM19.7506 16.2971C19.0176 16.2971 18.4246 15.6958 18.4246 14.9564C18.4246 14.217 19.0176 13.6158 19.7506 13.6158C20.4836 13.6158 21.0767 14.217 21.0767 14.9564C21.0767 15.6958 20.48 16.2971 19.7506 16.2971ZM26.3772 16.2971C25.6442 16.2971 25.0511 15.6958 25.0511 14.9564C25.0511 14.217 25.6442 13.6158 26.3772 13.6158C27.1102 13.6158 27.7032 14.217 27.7032 14.9564C27.7015 15.3121 27.5611 15.6526 27.3127 15.9038C27.0643 16.1549 26.728 16.2963 26.3772 16.2971V16.2971Z" fill="#FCB671"/>
</svg>
