<?xml version="1.0" encoding="UTF-8"?>
<svg width="15px" height="13px" viewBox="0 0 15 13" version="1.1" xmlns="http://www.w3.org/2000/svg" xmlns:xlink="http://www.w3.org/1999/xlink">
    <!-- Generator: Sketch 61.2 (89653) - https://sketch.com -->
    <title>Shape</title>
    <desc>Created with Sketch.</desc>
    <g id="Page-1" stroke="none" stroke-width="1" fill="none" fill-rule="evenodd">
        <g id="home" transform="translate(-262.000000, -644.000000)">
            <rect id="bg" fill="#FFFFFF" x="0" y="0" width="375" height="812"></rect>
            <g id="transction" transform="translate(20.000000, 503.000000)">
                <g id="2" transform="translate(0.000000, 122.000000)">
                    <g id="1-copy" transform="translate(219.000000, 4.000000)">
                        <rect id="Rectangle" stroke="#DEDEDE" x="0.5" y="0.5" width="115" height="40" rx="8"></rect>
                        <g id="Group-6" transform="translate(23.000000, 8.000000)" fill="#222222">
                            <path d="M1.1786184,10.2294004 C2.68002833,8.94007152 3.86606656,7.92074204 7.0837173,9.7388986 C8.62946833,10.6121431 9.87634666,10.9417796 10.9144094,10.9416078 C12.7318785,10.9416078 13.9093235,9.93052773 14.9277937,9.05539272 C15.2909437,8.74363017 14.1844789,7.39999202 13.8213288,7.71227017 C12.3200907,9.00211467 11.1342243,10.0211004 7.91554241,8.20260013 C3.66378182,5.80079108 1.67238565,7.51170407 0.0721535171,8.886106 C-0.29082471,9.19804042 0.81529644,10.5415067 1.1786184,10.2294004 Z M13.8213288,12.1006632 C12.3200907,13.390164 11.1342243,14.4093216 7.91554241,12.5909931 C3.66378182,10.1890122 1.67238565,11.8999252 0.0721535171,13.274499 C-0.29082471,13.5866053 0.815468304,14.9297279 1.1786184,14.6176216 C2.68002833,13.3281208 3.86606656,12.3089632 7.0837173,14.1269479 C8.62946833,15.0001924 9.87634666,15.3300007 10.9144094,15.3300007 C12.7318785,15.3300007 13.9093235,14.3187489 14.9277937,13.4437857 C15.2909437,13.1316795 14.1846507,11.788385 13.8213288,12.1006632 Z M13.8213288,16.4885406 C12.3200907,17.7782132 11.1342243,18.797199 7.91554241,16.9790424 C3.66378182,14.5770615 1.67238565,16.2879745 0.0721535171,17.6625483 C-0.29082471,17.9744827 0.815468304,19.317949 1.1786184,19.0058427 C2.68002833,17.7159982 3.8658947,16.6973562 7.0837173,18.5149972 C8.62946833,19.3885854 9.87634666,19.71805 10.9144094,19.71805 C12.7318785,19.71805 13.9093235,18.7067982 14.9277937,17.8320069 C15.2909437,17.5200725 14.1846507,16.176778 13.8213288,16.4885406 Z" id="Shape"></path>
                        </g>
                    </g>
                </g>
            </g>
        </g>
    </g>
</svg>