<svg width="96" height="96" viewBox="0 0 96 96" fill="none" xmlns="http://www.w3.org/2000/svg">
<path d="M81.3333 27.1667H14.6666C10.0642 27.1667 6.33325 30.8976 6.33325 35.5V77.1667C6.33325 81.7691 10.0642 85.5 14.6666 85.5H81.3333C85.9356 85.5 89.6666 81.7691 89.6666 77.1667V35.5C89.6666 30.8976 85.9356 27.1667 81.3333 27.1667Z" stroke="#FB7575" stroke-width="4" stroke-linecap="round" stroke-linejoin="round"/>
<path d="M64.6666 85.5V18.8333C64.6666 16.6232 63.7886 14.5036 62.2258 12.9408C60.663 11.378 58.5434 10.5 56.3333 10.5H39.6666C37.4564 10.5 35.3368 11.378 33.774 12.9408C32.2112 14.5036 31.3333 16.6232 31.3333 18.8333V85.5" stroke="#FB7575" stroke-width="4" stroke-linecap="round" stroke-linejoin="round"/>
</svg>
