<svg width="48" height="48" viewBox="0 0 48 48" fill="none" xmlns="http://www.w3.org/2000/svg">
<path d="M15.5856 19.3801C15.6936 18.6721 16.3992 18.0001 17.3952 18.0001C18.3912 18.0001 19.0968 18.6721 19.2048 19.3801C19.2231 19.5404 19.2736 19.6953 19.3531 19.8356C19.4327 19.9759 19.5397 20.0988 19.6678 20.1968C19.7959 20.2948 19.9425 20.366 20.0987 20.4061C20.255 20.4462 20.4177 20.4544 20.5772 20.4302C20.7366 20.406 20.8896 20.3499 21.0269 20.2652C21.1642 20.1805 21.283 20.069 21.3763 19.9374C21.4695 19.8058 21.5352 19.6567 21.5696 19.4991C21.6039 19.3415 21.6061 19.1786 21.576 19.0201C21.2712 17.0161 19.4496 15.6001 17.3952 15.6001C15.3408 15.6001 13.5192 17.0161 13.2144 19.0201C13.1843 19.1786 13.1865 19.3415 13.2208 19.4991C13.2552 19.6567 13.3209 19.8058 13.4141 19.9374C13.5074 20.069 13.6262 20.1805 13.7635 20.2652C13.9008 20.3499 14.0538 20.406 14.2132 20.4302C14.3727 20.4544 14.5354 20.4462 14.6917 20.4061C14.8479 20.366 14.9945 20.2948 15.1226 20.1968C15.2507 20.0988 15.3577 19.9759 15.4373 19.8356C15.5168 19.6953 15.5673 19.5404 15.5856 19.3801Z" fill="black"/>
<path d="M30.5952 18.0001C29.5992 18.0001 28.896 18.6721 28.7856 19.3801C28.7277 19.6853 28.5537 19.9561 28.3003 20.1356C28.0468 20.3152 27.7336 20.3894 27.4265 20.3428C27.1194 20.2962 26.8424 20.1323 26.6536 19.8856C26.4649 19.639 26.3791 19.3287 26.4144 19.0201C26.7192 17.0161 28.5408 15.6001 30.5952 15.6001C32.6496 15.6001 34.4712 17.0161 34.776 19.0201C34.8113 19.3287 34.7255 19.639 34.5368 19.8856C34.348 20.1323 34.071 20.2962 33.7639 20.3428C33.4568 20.3894 33.1436 20.3152 32.8901 20.1356C32.6367 19.9561 32.4627 19.6853 32.4048 19.3801C32.2944 18.6721 31.5912 18.0001 30.5952 18.0001V18.0001Z" fill="black"/>
<path d="M13.188 24C13.0206 24.0002 12.8551 24.0354 12.7022 24.1034C12.5492 24.1713 12.4121 24.2706 12.2998 24.3946C12.1875 24.5187 12.1023 24.665 12.0499 24.8239C11.9974 24.9829 11.9788 25.151 11.9952 25.3176C12.5664 31.1808 17.1696 36 23.988 36C30.8064 36 35.412 31.1808 35.9832 25.3176C35.9996 25.1508 35.9809 24.9825 35.9283 24.8233C35.8757 24.6642 35.7904 24.5179 35.6778 24.3938C35.5652 24.2696 35.4278 24.1705 35.2746 24.1026C35.1213 24.0348 34.9556 23.9999 34.788 24H13.188V24ZM23.988 33.6C18.9936 33.6 15.5496 30.4728 14.5992 26.4H33.3792C32.4264 30.4728 28.9848 33.6 23.988 33.6Z" fill="black"/>
<path d="M24 4.80005C18.9078 4.80005 14.0242 6.8229 10.4235 10.4236C6.82285 14.0243 4.8 18.9079 4.8 24C4.8 29.0922 6.82285 33.9758 10.4235 37.5765C14.0242 41.1772 18.9078 43.2 24 43.2C29.0922 43.2 33.9758 41.1772 37.5764 37.5765C41.1771 33.9758 43.2 29.0922 43.2 24C43.2 18.9079 41.1771 14.0243 37.5764 10.4236C33.9758 6.8229 29.0922 4.80005 24 4.80005V4.80005ZM7.2 24C7.2 21.7938 7.63454 19.6092 8.47882 17.571C9.3231 15.5327 10.5606 13.6807 12.1206 12.1207C13.6806 10.5606 15.5326 9.32315 17.5709 8.47887C19.6092 7.63459 21.7938 7.20005 24 7.20005C26.2062 7.20005 28.3908 7.63459 30.4291 8.47887C32.4673 9.32315 34.3194 10.5606 35.8794 12.1207C37.4394 13.6807 38.6769 15.5327 39.5212 17.571C40.3655 19.6092 40.8 21.7938 40.8 24C40.8 28.4557 39.03 32.7288 35.8794 35.8794C32.7288 39.0301 28.4556 40.8 24 40.8C19.5444 40.8 15.2712 39.0301 12.1206 35.8794C8.96999 32.7288 7.2 28.4557 7.2 24Z" fill="black"/>
</svg>
